<?xml version="1.0" encoding="utf-8"?>
<!-- Generator: Adobe Illustrator 15.1.0, SVG Export Plug-In . SVG Version: 6.00 Build 0)  -->
<!DOCTYPE svg PUBLIC "-//W3C//DTD SVG 1.1//EN" "http://www.w3.org/Graphics/SVG/1.1/DTD/svg11.dtd">
<svg version="1.1" id="Layer_1" xmlns="http://www.w3.org/2000/svg" xmlns:xlink="http://www.w3.org/1999/xlink" x="0px" y="0px"
	 width="200px" height="200px" viewBox="0 0 200 200" enable-background="new 0 0 200 200" xml:space="preserve">
<g>
	<path fill="#1a095a" d="M93.593,181.438l-0.006-0.123l-0.004-0.111l-0.033-0.242l-0.009-0.061c-0.041-0.21-0.105-0.405-0.188-0.596l-0.029-0.059
		l-0.111-0.211l-0.047-0.084l-0.123-0.175l-0.057-0.076l-0.157-0.185l-0.046-0.047l-0.227-0.211l-0.011-0.006l-13.251-10.638
		c-1.207-0.97-2.968-0.776-3.935,0.426c-0.97,1.207-0.777,2.965,0.43,3.933l6.522,5.248c-17.253-1.714-32.812-8.64-44.465-19.949
		C24.63,145.448,17.35,128.027,17.35,109.218c0-1.551-1.252-2.8-2.799-2.8s-2.799,1.249-2.799,2.8
		c0,20.336,7.881,39.184,22.198,53.072c12.623,12.252,29.447,19.731,48.056,21.526l-6.533,4.251
		c-1.297,0.838-1.664,2.569-0.821,3.871c0.537,0.819,1.433,1.271,2.349,1.271c0.523,0,1.053-0.145,1.524-0.455l13.794-8.969
		l0.013-0.005l0.25-0.19l0.034-0.034l0.188-0.171l0.066-0.074l0.135-0.16l0.062-0.083l0.123-0.187l0.04-0.064
		c0.102-0.185,0.185-0.368,0.246-0.578l0.01-0.045l0.058-0.253l0.016-0.092l0.023-0.215l0.005-0.052v-0.063L93.593,181.438z"/>
	<path fill="#1a095a" d="M93.593,181.438l0.965-0.043l-0.004-0.126l-0.002-0.01l-0.004-0.101l-0.002-0.04l-0.036-0.285l-0.002-0.011l-0.012-0.072
		l-0.001-0.02l-0.003-0.012c-0.055-0.286-0.141-0.552-0.253-0.807l-0.004-0.007l-0.034-0.073l-0.007-0.019l-0.12-0.224l-0.016-0.031
		l-0.063-0.107l-0.014-0.024l-0.136-0.194l-0.013-0.018l-0.07-0.099l-0.021-0.024l-0.178-0.208l-0.009-0.011l-0.057-0.057
		l-0.028-0.037l-0.259-0.233l-0.011-0.009l-0.021-0.019l-13.274-10.665c-0.693-0.55-1.531-0.826-2.357-0.826
		c-1.099,0-2.196,0.481-2.938,1.405c-0.557,0.693-0.831,1.538-0.831,2.363c0,1.1,0.484,2.188,1.409,2.935l-0.018-0.021l6.542,5.26
		l0.604-0.748l0.095-0.971c-17.055-1.688-32.401-8.528-43.886-19.664c-13.028-12.654-20.201-29.805-20.205-48.369
		c0-2.078-1.685-3.767-3.766-3.767c-2.081,0-3.766,1.688-3.768,3.767c-0.002,20.587,7.989,39.701,22.492,53.768
		c12.791,12.412,29.83,19.984,48.638,21.789l0.092-0.958l-0.528-0.812l-6.522,4.241l-0.011,0.006
		c-1.108,0.724-1.714,1.928-1.712,3.162c0,0.702,0.198,1.417,0.609,2.053c0.722,1.104,1.931,1.712,3.16,1.709
		c0.705,0.003,1.421-0.196,2.052-0.614l13.825-8.986l0.036-0.023l0.243-0.179l0.044-0.04l0.074-0.064l0.002-0.003l0.189-0.182
		l0.028-0.023l0.09-0.099l0.015-0.016l0.149-0.171l0.016-0.021l0.075-0.102l0.019-0.021l0.14-0.219l0.011-0.016l0.051-0.082
		l0.006-0.012l0.008-0.01c0.136-0.245,0.247-0.503,0.328-0.773l0.006-0.021l0.017-0.062l0.001-0.015l0.062-0.266l0.008-0.032
		l0.021-0.127l0.003-0.018l0.024-0.24v0.004l0.006-0.053l0.007-0.062l-0.001-0.083l0.003-0.061l0.003-0.04l-0.003-0.049
		L93.593,181.438l-0.967-0.047l-0.004,0.074v0.034v0.085l0.966-0.003l-0.96-0.12l-0.006,0.059v0.003l-0.022,0.197l-0.005,0.039
		l-0.048,0.21l-0.009,0.032l0.938,0.236l-0.928-0.269c-0.04,0.128-0.092,0.247-0.159,0.37l0.841,0.477l-0.827-0.5l-0.032,0.049
		l-0.095,0.147l-0.028,0.03l-0.104,0.125l-0.028,0.034l-0.162,0.157l0.002-0.004l-0.031,0.025l0.657,0.709l-0.572-0.777
		l-0.251,0.185l-0.008,0.007l-0.021,0.012l0.591,0.77l-0.528-0.81l-13.794,8.975c-0.31,0.193-0.652,0.288-0.996,0.291
		c-0.603-0.003-1.186-0.288-1.539-0.828c-0.201-0.316-0.295-0.657-0.296-1c0.001-0.605,0.293-1.188,0.835-1.545l8.852-5.754
		l-2.754-0.264c-18.41-1.778-35.02-9.168-47.475-21.249c-14.127-13.707-21.903-32.297-21.905-52.384
		c0.001-1.015,0.821-1.833,1.833-1.836c1.011,0.003,1.831,0.821,1.832,1.836c-0.001,19.062,7.384,36.74,20.792,49.751
		c11.819,11.469,27.592,18.482,45.042,20.21l3.238,0.325l-9.06-7.276c-0.453-0.368-0.683-0.893-0.685-1.431
		c0-0.408,0.131-0.811,0.404-1.147c0.363-0.454,0.89-0.688,1.43-0.688c0.405,0,0.804,0.132,1.146,0.406l-0.02-0.015l13.271,10.651
		l0.604-0.751l-0.651,0.722l0.011,0.006l0.196,0.175l0.006,0.006l0.125,0.147l0.024,0.034l0.095,0.138l0.018,0.027l0.088,0.175
		l0.021,0.04l0.873-0.417l-0.886,0.39c0.055,0.126,0.097,0.255,0.123,0.387l0.95-0.181l-0.957,0.153l0.01,0.045l0.022,0.191
		l0.003,0.07l0.006,0.119L93.593,181.438l-0.967-0.047L93.593,181.438z"/>
	<path fill="#1a095a" d="M168.218,40.508c-12.623-12.246-29.449-19.732-48.057-21.516l6.534-4.25c1.296-0.846,1.664-2.582,0.819-3.875
		c-0.845-1.291-2.578-1.666-3.873-0.822l-13.794,8.973l-0.011,0.008l-0.253,0.188l-0.033,0.027l-0.187,0.182l-0.068,0.074
		l-0.136,0.158l-0.062,0.08l-0.122,0.188l-0.04,0.07c-0.102,0.182-0.184,0.369-0.245,0.568l-0.01,0.047l-0.061,0.25l-0.013,0.1
		l-0.024,0.207l-0.007,0.059v0.062l-0.002,0.076l0.006,0.129l0.006,0.105l0.03,0.238l0.011,0.068
		c0.039,0.205,0.103,0.408,0.186,0.586l0.028,0.066l0.11,0.209l0.049,0.08l0.123,0.182l0.056,0.076l0.159,0.184l0.043,0.053
		l0.228,0.203l0.012,0.01l13.25,10.643c0.52,0.414,1.139,0.613,1.752,0.613c0.819,0,1.63-0.359,2.186-1.049
		c0.968-1.201,0.773-2.965-0.43-3.932l-6.524-5.242c17.252,1.707,32.812,8.637,44.465,19.939
		c13.218,12.828,20.497,30.248,20.497,49.062c0,1.543,1.255,2.799,2.799,2.799c1.547,0,2.802-1.256,2.802-2.799
		C190.417,73.246,182.533,54.395,168.218,40.508z"/>
	<path fill="#1a095a" d="M168.218,40.508l0.676-0.688c-12.792-12.416-29.833-19.98-48.641-21.791l-0.092,0.963l0.527,0.805l6.532-4.246
		c1.11-0.723,1.715-1.939,1.715-3.158c0-0.701-0.199-1.424-0.61-2.059c-0.722-1.1-1.931-1.709-3.162-1.709
		c-0.702,0-1.417,0.199-2.049,0.613l-0.011,0.006l-13.805,8.975l-0.034,0.033h-0.002l-0.252,0.182l-0.044,0.031l-0.066,0.066
		l-0.007,0.004l-0.193,0.182l-0.027,0.027l-0.089,0.094l-0.016,0.02l-0.15,0.182l-0.016,0.014l-0.072,0.1l-0.02,0.027l-0.142,0.209
		l-0.005,0.012l-0.049,0.082l-0.013,0.014l-0.009,0.014c-0.136,0.244-0.246,0.496-0.327,0.773l-0.005,0.01l-0.015,0.062
		l-0.004,0.018l-0.064,0.264l-0.01,0.037l-0.018,0.139l-0.004,0.018l-0.023,0.23v-0.002l-0.007,0.055l-0.008,0.064l0.002,0.082
		l-0.003,0.043l-0.004,0.059l0.009,0.182l0.007,0.102l0.004,0.039l0.033,0.279l0.003,0.006l0.009,0.074l0.004,0.021l0.002,0.012
		c0.056,0.293,0.143,0.557,0.256,0.811l0.006,0.012l0.034,0.074l0.009,0.021l0.119,0.225l0.013,0.021l0.062,0.107l0.013,0.018
		l0.141,0.199l0.009,0.02l0.065,0.096l0.023,0.027l0.185,0.211l0.003,0.002l0.049,0.059l0.034,0.035l0.258,0.232l0.031,0.027
		l13.282,10.672c0.695,0.553,1.532,0.832,2.357,0.832c1.1,0,2.195-0.49,2.938-1.408c0.559-0.693,0.832-1.539,0.832-2.363
		c0-1.094-0.484-2.191-1.408-2.938l-6.525-5.24l-0.604,0.756l-0.096,0.965c17.056,1.693,32.404,8.535,43.886,19.672
		c13.032,12.646,20.205,29.803,20.205,48.365c0.003,2.08,1.686,3.768,3.766,3.768c2.081,0,3.77-1.688,3.77-3.768
		c0-20.588-7.989-39.703-22.491-53.766L168.218,40.508l-0.671,0.695c14.123,13.707,21.901,32.291,21.904,52.383
		c-0.003,1.012-0.823,1.828-1.836,1.828c-1.01,0-1.829-0.812-1.832-1.828c0.003-19.062-7.385-36.744-20.791-49.748
		c-11.818-11.473-27.592-18.49-45.044-20.215l-3.237-0.322l9.061,7.277c0.454,0.365,0.684,0.896,0.684,1.428
		c0,0.41-0.128,0.811-0.4,1.15c-0.366,0.451-0.892,0.684-1.432,0.684c-0.404,0-0.804-0.135-1.145-0.4l-13.253-10.641l-0.604,0.752
		l0.666-0.703l-0.01-0.014l-0.009-0.006l-0.199-0.178l-0.007-0.012l-0.128-0.15l-0.021-0.021l-0.098-0.143l-0.02-0.035l-0.092-0.172
		l-0.019-0.043l-0.872,0.414l0.885-0.387c-0.056-0.123-0.098-0.254-0.119-0.385l-0.951,0.186l0.956-0.145l-0.009-0.059l-0.024-0.191
		l-0.003-0.072l-0.007-0.07l0.004-0.035v-0.033v-0.09l-0.968,0.016l0.962,0.107l0.006-0.049v-0.002l0.021-0.203l0.006-0.037
		l0.046-0.193l0.006-0.031l-0.933-0.254l0.927,0.281c0.04-0.135,0.093-0.264,0.159-0.379l-0.841-0.471l0.823,0.508l0.034-0.059
		l0.098-0.154l0.027-0.033l0.104-0.129l0.028-0.025l0.155-0.152l0.031-0.021l-0.654-0.713l0.574,0.779l0.251-0.189l-0.002,0.002
		l0.013-0.008l-0.572-0.779l0.529,0.818l13.802-8.986l-0.009,0.004c0.309-0.195,0.65-0.295,0.993-0.295
		c0.604,0,1.188,0.291,1.541,0.838c0.202,0.307,0.295,0.652,0.298,0.996c-0.003,0.6-0.292,1.186-0.835,1.533l-8.852,5.76
		l2.754,0.262c18.408,1.777,35.02,9.168,47.478,21.256L168.218,40.508z"/>
	<path fill="#1a095a" d="M56.721,3.791c-28.909,0-52.43,23.516-52.43,52.43c0,28.906,23.521,52.432,52.43,52.432c28.91,0,52.43-23.525,52.43-52.432
		C109.151,27.307,85.631,3.791,56.721,3.791z M56.721,103.055c-25.823,0-46.832-21.01-46.832-46.834
		c0-25.818,21.009-46.836,46.832-46.836c25.824,0,46.833,21.018,46.833,46.836C103.554,82.045,82.545,103.055,56.721,103.055z"/>
	<path fill="#1a095a" d="M56.721,3.791V2.826c-29.445,0-53.395,23.947-53.396,53.395c0.001,29.443,23.951,53.396,53.396,53.399
		c29.447-0.004,53.394-23.956,53.397-53.399c-0.003-29.447-23.95-53.395-53.397-53.395V3.791v0.967
		c14.19,0,27.051,5.775,36.373,15.094c9.321,9.318,15.091,22.178,15.091,36.369c0,14.193-5.771,27.049-15.091,36.373
		c-9.322,9.322-22.183,15.092-36.373,15.092c-14.189,0-27.048-5.77-36.371-15.092C11.029,83.27,5.26,70.414,5.259,56.221
		C5.26,42.029,11.029,29.17,20.35,19.852c9.323-9.318,22.182-15.094,36.371-15.094V3.791z M56.721,103.055v-0.971
		c-12.645,0-24.105-5.135-32.414-13.445C16,80.332,10.858,68.867,10.858,56.221c0-12.645,5.141-24.105,13.449-32.42
		c8.308-8.301,19.769-13.445,32.414-13.445c12.647,0,24.108,5.145,32.417,13.445c8.307,8.314,13.45,19.775,13.45,32.42
		c0,12.646-5.143,24.111-13.45,32.418c-8.308,8.311-19.77,13.445-32.417,13.445V103.055v0.969c26.36,0,47.797-21.443,47.798-47.803
		C104.519,29.857,83.081,8.426,56.721,8.426c-26.358,0-47.796,21.432-47.798,47.795c0.001,26.359,21.44,47.803,47.798,47.803
		V103.055z"/>
	<path fill="#1a095a" d="M96.615,61.234c-1.52-0.303-2.988,0.689-3.286,2.205c-1.427,7.275-4.963,13.904-10.227,19.164
		c-7.046,7.047-16.415,10.928-26.381,10.928c-9.964,0-19.334-3.881-26.379-10.928c-5.251-5.254-8.784-11.861-10.217-19.111
		c-0.299-1.52-1.77-2.502-3.289-2.203c-1.518,0.301-2.505,1.77-2.204,3.287c1.649,8.342,5.711,15.943,11.75,21.986
		c8.104,8.1,18.879,12.568,30.339,12.568c11.462,0,22.236-4.469,30.34-12.568c6.053-6.053,10.121-13.676,11.761-22.043
		C99.12,63.004,98.132,61.527,96.615,61.234z"/>
	<path fill="#1a095a" d="M96.615,61.234l0.187-0.949c-0.244-0.049-0.488-0.07-0.73-0.07c-1.77,0-3.338,1.246-3.691,3.041
		c-1.392,7.08-4.832,13.529-9.962,18.666c-6.869,6.861-15.983,10.639-25.697,10.639c-9.712,0-18.827-3.777-25.697-10.639
		c-5.117-5.121-8.554-11.555-9.952-18.619c-0.355-1.791-1.924-3.031-3.692-3.031c-0.241,0-0.486,0.02-0.732,0.066l0.015-0.008
		l-0.017,0.008c-1.792,0.361-3.035,1.924-3.035,3.691c0,0.248,0.023,0.49,0.072,0.736l0.002,0.014l-0.002-0.014
		c1.685,8.533,5.842,16.311,12.014,22.479c8.281,8.287,19.312,12.852,31.023,12.846c11.714,0.006,22.743-4.559,31.023-12.846
		c6.187-6.188,10.349-13.986,12.028-22.539c0.048-0.246,0.07-0.486,0.07-0.73c0-1.766-1.246-3.334-3.041-3.689L96.615,61.234
		l-0.186,0.947c0.873,0.174,1.479,0.939,1.479,1.793c0,0.119-0.011,0.242-0.034,0.359c-1.605,8.178-5.578,15.625-11.498,21.545
		c-7.926,7.924-18.445,12.279-29.656,12.283c-11.209-0.004-21.728-4.359-29.656-12.283c-5.904-5.908-9.872-13.336-11.484-21.49
		l-0.002-0.01l0.002,0.01c-0.024-0.117-0.037-0.24-0.037-0.359c0-0.854,0.604-1.617,1.479-1.793h-0.001
		c0.121-0.021,0.241-0.039,0.357-0.039c0.856,0,1.624,0.609,1.796,1.482c1.47,7.439,5.096,14.223,10.481,19.609
		c7.224,7.221,16.847,11.205,27.064,11.205s19.842-3.984,27.064-11.205c5.398-5.4,9.029-12.209,10.494-19.664
		c0.169-0.869,0.936-1.477,1.792-1.477c0.117,0,0.236,0.012,0.357,0.033L96.615,61.234z"/>
	<path fill="#1a095a" d="M98.281,45.525c-1.901-7.412-5.78-14.211-11.219-19.643c-8.104-8.105-18.878-12.568-30.34-12.568
		c-11.46,0-22.234,4.463-30.339,12.568c-5.426,5.426-9.303,12.205-11.207,19.596c-0.385,1.498,0.516,3.027,2.014,3.404
		c1.497,0.391,3.022-0.51,3.408-2.01c1.656-6.422,5.026-12.314,9.745-17.031c7.045-7.043,16.415-10.93,26.379-10.93
		c9.966,0,19.334,3.887,26.381,10.93c4.73,4.729,8.103,10.631,9.756,17.076c0.324,1.262,1.462,2.1,2.71,2.1
		c0.229,0,0.463-0.023,0.697-0.088C97.763,48.543,98.665,47.018,98.281,45.525z"/>
	<path fill="#1a095a" d="M98.281,45.525l0.937-0.242c-1.945-7.578-5.911-14.529-11.471-20.086C79.464,16.912,68.435,12.35,56.721,12.35
		c-11.712,0-22.743,4.562-31.023,12.848c-5.548,5.553-9.51,12.477-11.459,20.039c-0.081,0.312-0.119,0.633-0.119,0.939
		c-0.002,1.678,1.128,3.211,2.827,3.646l-0.024-0.006l0.026,0.006c0.313,0.082,0.629,0.119,0.94,0.119
		c1.681,0,3.206-1.129,3.645-2.826l-0.001,0.002l0.001-0.002c1.613-6.256,4.895-11.992,9.493-16.592
		c6.869-6.867,15.983-10.645,25.695-10.645c9.714,0,18.828,3.777,25.697,10.645c4.608,4.613,7.894,10.357,9.502,16.629
		c0.439,1.703,1.966,2.832,3.648,2.832c0.31,0,0.625-0.037,0.936-0.117H96.5h0.006c1.701-0.438,2.832-1.967,2.832-3.643
		c0-0.316-0.04-0.625-0.12-0.941L98.281,45.525l-0.938,0.242c0.04,0.146,0.059,0.307,0.059,0.457c0,0.811-0.55,1.557-1.376,1.768
		c-0.155,0.043-0.311,0.059-0.458,0.059c-0.813,0-1.564-0.553-1.774-1.377c-1.696-6.609-5.156-12.67-10.009-17.518
		c-7.222-7.221-16.847-11.213-27.064-11.213s-19.84,3.992-27.064,11.213c-4.84,4.838-8.298,10.881-9.997,17.48
		c-0.212,0.824-0.958,1.369-1.772,1.369c-0.15,0-0.304-0.02-0.46-0.057l-0.023-0.006l0.025,0.006
		c-0.829-0.211-1.377-0.953-1.377-1.773c0-0.15,0.019-0.297,0.059-0.463c1.862-7.213,5.65-13.842,10.955-19.148
		c7.927-7.922,18.446-12.283,29.655-12.283c11.21,0,21.729,4.361,29.658,12.283c5.315,5.318,9.108,11.961,10.964,19.203
		L98.281,45.525z"/>
	<path fill="#1a095a" d="M145.279,92.342c-28.912,0-52.431,23.52-52.431,52.435c0,28.912,23.519,52.431,52.431,52.431
		c28.908,0,52.428-23.519,52.428-52.431C197.707,115.861,174.188,92.342,145.279,92.342z M145.279,191.611
		c-25.824,0-46.833-21.014-46.833-46.835c0-25.817,21.008-46.833,46.833-46.833c25.821,0,46.829,21.016,46.829,46.833
		C192.108,170.598,171.101,191.611,145.279,191.611z"/>
	<path fill="#1a095a" d="M145.279,92.342v-0.961c-29.449,0-53.397,23.953-53.399,53.396c0.001,29.446,23.95,53.397,53.399,53.397
		c29.445,0,53.396-23.951,53.396-53.397c0-29.442-23.95-53.396-53.396-53.396V92.342v0.967c14.188,0,27.049,5.777,36.369,15.089
		c9.321,9.328,15.092,22.19,15.092,36.379c0,14.192-5.771,27.055-15.092,36.373c-9.32,9.321-22.181,15.088-36.369,15.088
		c-14.192,0-27.053-5.767-36.373-15.088c-9.321-9.318-15.091-22.181-15.091-36.373c0-14.188,5.77-27.051,15.091-36.379
		c9.32-9.312,22.181-15.089,36.373-15.089V92.342z M145.279,191.611v-0.969c-12.647,0-24.108-5.145-32.417-13.452
		c-8.308-8.302-13.449-19.77-13.449-32.414c0-12.648,5.141-24.104,13.449-32.413c8.309-8.312,19.77-13.453,32.417-13.453
		c12.646,0,24.104,5.141,32.413,13.453c8.309,8.309,13.45,19.763,13.45,32.413c0,12.645-5.142,24.112-13.45,32.414
		c-8.309,8.308-19.768,13.452-32.413,13.452V191.611v0.964c26.357,0,47.797-21.434,47.797-47.799c0-26.361-21.439-47.8-47.797-47.8
		c-26.361,0-47.798,21.438-47.799,47.8c0.001,26.365,21.438,47.799,47.799,47.799V191.611z"/>
	<path fill="#1a095a" d="M186.999,134.729c-1.842-7.674-5.776-14.688-11.381-20.288c-8.103-8.112-18.879-12.567-30.339-12.567
		c-11.464,0-22.237,4.455-30.342,12.567c-5.552,5.547-9.469,12.496-11.329,20.082c-0.368,1.507,0.55,3.023,2.053,3.389
		c1.5,0.375,3.016-0.555,3.384-2.053c1.617-6.597,5.023-12.637,9.852-17.465c7.046-7.044,16.414-10.927,26.383-10.927
		c9.963,0,19.333,3.883,26.379,10.927c4.874,4.874,8.296,10.976,9.896,17.642c0.307,1.287,1.454,2.146,2.72,2.146
		c0.218,0,0.435-0.025,0.656-0.08C186.431,137.745,187.357,136.235,186.999,134.729z"/>
	<path fill="#1a095a" d="M186.999,134.729l0.938-0.228c-1.881-7.842-5.908-15.014-11.635-20.744c-8.281-8.288-19.312-12.854-31.023-12.854
		c-11.715,0-22.743,4.566-31.023,12.854c-5.679,5.675-9.685,12.773-11.588,20.535c-0.072,0.301-0.108,0.604-0.108,0.906
		c0,1.7,1.15,3.225,2.871,3.651h-0.004h0.002c0.301,0.074,0.603,0.111,0.903,0.111c1.696,0,3.228-1.16,3.651-2.873
		c1.574-6.424,4.893-12.305,9.597-17.01c6.87-6.865,15.981-10.641,25.699-10.641c9.711,0,18.825,3.775,25.695,10.641
		c4.748,4.751,8.081,10.692,9.637,17.185c0.418,1.722,1.956,2.888,3.658,2.888v-0.76l-0.006,0.76h0.006v-0.76l-0.006,0.76h0.006
		h0.004c0.292,0,0.586-0.039,0.877-0.101v-0.004h0.004c1.728-0.415,2.888-1.955,2.888-3.66c0-0.296-0.034-0.585-0.104-0.885
		L186.999,134.729l-0.942,0.224c0.036,0.145,0.052,0.295,0.052,0.434c0,0.828-0.564,1.583-1.405,1.776h0.003
		c-0.147,0.037-0.292,0.056-0.433,0.056h0.005h0.004h-0.013c-0.821,0-1.577-0.565-1.776-1.406
		c-1.643-6.839-5.15-13.103-10.15-18.102c-7.224-7.226-16.85-11.202-27.063-11.202c-10.218,0-19.842,3.977-27.063,11.202
		c-4.958,4.956-8.453,11.149-10.111,17.914c-0.202,0.841-0.956,1.396-1.772,1.396c-0.145,0-0.293-0.012-0.44-0.049l-0.002-0.003
		c-0.836-0.199-1.396-0.951-1.396-1.771c0-0.145,0.017-0.295,0.055-0.445c1.815-7.412,5.646-14.202,11.073-19.635
		c7.927-7.917,18.448-12.282,29.657-12.282c11.208,0,21.727,4.365,29.654,12.282c5.479,5.482,9.323,12.336,11.123,19.834
		L186.999,134.729z"/>
	<path fill="#1a095a" d="M185.127,150.136c-1.517-0.307-2.996,0.666-3.307,2.182c-1.466,7.143-4.98,13.658-10.162,18.848
		c-7.046,7.041-16.416,10.92-26.379,10.92c-9.969,0-19.337-3.879-26.383-10.92c-5.141-5.143-8.643-11.604-10.128-18.685
		c-0.316-1.513-1.804-2.483-3.315-2.168c-1.514,0.321-2.482,1.803-2.165,3.315c1.709,8.148,5.738,15.582,11.649,21.486
		c8.104,8.101,18.878,12.569,30.342,12.569c11.457,0,22.233-4.469,30.339-12.569c5.957-5.96,9.999-13.452,11.684-21.667
		C187.615,151.932,186.64,150.449,185.127,150.136z"/>
	<path fill="#1a095a" d="M185.127,150.136l0.193-0.942c-0.255-0.056-0.51-0.083-0.759-0.083c-1.756,0-3.32,1.236-3.689,3.017
		c-1.431,6.955-4.85,13.293-9.897,18.351c-6.87,6.866-15.984,10.639-25.695,10.639c-9.718,0-18.829-3.772-25.699-10.639l0.031,0.032
		l-0.031-0.032c-5.009-5.015-8.418-11.304-9.867-18.196l-0.002-0.007l0.002,0.007c-0.374-1.781-1.936-2.993-3.683-2.993
		c-0.257,0-0.517,0.028-0.776,0.08c-1.775,0.372-2.994,1.937-2.994,3.687c0,0.254,0.027,0.516,0.082,0.772
		c1.747,8.331,5.867,15.93,11.91,21.973c8.281,8.283,19.312,12.852,31.027,12.848c11.712,0.004,22.74-4.564,31.02-12.848
		c6.094-6.09,10.227-13.756,11.952-22.162l-0.016,0.083l0.016-0.083c0.053-0.252,0.076-0.513,0.076-0.766
		c0.004-1.751-1.224-3.311-3.007-3.679L185.127,150.136l-0.193,0.954c0.865,0.172,1.46,0.939,1.46,1.782
		c0,0.128-0.012,0.253-0.036,0.375c-1.651,8.041-5.599,15.364-11.424,21.184c-7.928,7.929-18.449,12.286-29.654,12.289
		c-11.212-0.003-21.73-4.36-29.657-12.289c-5.779-5.77-9.716-13.037-11.389-20.996c-0.026-0.132-0.04-0.258-0.04-0.38
		c0-0.851,0.594-1.618,1.457-1.793c0.129-0.03,0.256-0.047,0.38-0.047c0.846,0,1.611,0.596,1.789,1.462l0.004,0.009l-0.004-0.009
		c1.525,7.265,5.122,13.894,10.393,19.169l-0.034-0.038l0.034,0.038c7.226,7.227,16.85,11.207,27.067,11.207
		c10.214,0,19.84-3.98,27.063-11.207c5.313-5.314,8.92-12.002,10.427-19.331l-0.013,0.045l0.013-0.045
		c0.175-0.866,0.942-1.468,1.792-1.468c0.119,0,0.246,0.016,0.372,0.043L185.127,150.136z"/>
	<path fill="#1a095a" d="M155.401,145.237c2.952-1.308,4.828-4.494,4.828-9.204c0-5.967-2.987-8.49-7.02-9.398h0.145v-2.651
		c0-1.464-1.188-2.649-2.651-2.649s-2.652,1.186-2.652,2.649v2.216h-2.897v-2.216c0-1.464-1.188-2.649-2.652-2.649
		s-2.647,1.186-2.647,2.649v2.216h-0.747h-0.693h-2.596c-1.551,0-2.803,1.252-2.803,2.802c0,1.525,1.216,2.759,2.729,2.802v30.333
		c-1.513,0.033-2.729,1.273-2.729,2.793c0,1.547,1.252,2.803,2.803,2.803h2.596h0.693h0.747v2.357c0,1.47,1.184,2.654,2.647,2.654
		s2.652-1.185,2.652-2.654v-2.357h2.897v2.357c0,1.47,1.188,2.654,2.652,2.654s2.651-1.185,2.651-2.654v-2.649h-0.271
		c4.779-0.951,8.171-4.346,8.171-11.635v-1.084C161.255,148.929,158.925,146.597,155.401,145.237z M141.709,131.541h6.649
		c3.577,0,5.85,1.649,5.85,5.456c0,3.859-1.876,5.852-5.737,5.852h-6.762V131.541z M155.229,155.343c0,4.89-2.385,7.052-6.418,7.052
		h-7.103v-14.775h7.103c4.033,0,6.418,1.823,6.418,6.819V155.343z"/>
	<path fill="#1a095a" d="M155.401,145.237l0.39,0.881c1.679-0.74,3.058-2.029,3.983-3.745c0.93-1.721,1.421-3.857,1.421-6.34
		c0.007-3.137-0.794-5.52-2.222-7.22c-1.427-1.7-3.403-2.646-5.555-3.121l-0.209,0.942v0.968h0.145h0.967v-3.619
		c0-2.001-1.62-3.613-3.618-3.616c-1.998,0.003-3.619,1.615-3.619,3.616v1.253h-0.964v-1.253c0-2.001-1.621-3.613-3.619-3.616
		c-1.998,0.003-3.615,1.615-3.615,3.616v2.216h0.968v-0.963h-0.747h-0.693h-2.596c-2.085,0-3.769,1.684-3.769,3.765
		c0,2.05,1.632,3.714,3.67,3.766l0.024-0.964h-0.967v30.333h0.967l-0.024-0.97c-2.038,0.052-3.67,1.716-3.67,3.763
		c0,2.087,1.684,3.767,3.769,3.772h2.596h0.693h0.747v-0.97h-0.968v2.357c0,2,1.617,3.617,3.615,3.617s3.619-1.617,3.619-3.617
		v-1.388h0.964v1.388c0,2,1.621,3.617,3.619,3.617s3.618-1.617,3.618-3.617v-3.616h-1.237v0.967l0.19,0.944
		c2.557-0.5,4.847-1.7,6.451-3.798c1.608-2.092,2.495-4.998,2.495-8.781v-1.084c0-3.021-0.61-5.27-1.776-6.955
		c-1.166-1.681-2.834-2.715-4.693-3.438L155.401,145.237l0.39,0.881L155.401,145.237l-0.351,0.898
		c1.664,0.645,2.923,1.461,3.804,2.729c0.877,1.271,1.43,3.081,1.433,5.855v1.084c-0.003,3.498-0.811,5.936-2.094,7.604
		c-1.281,1.661-3.077,2.634-5.296,3.081l0.187,1.913h0.271v-0.964h-0.968v2.649c-0.002,0.93-0.754,1.687-1.684,1.691
		c-0.932-0.005-1.683-0.762-1.686-1.691v-3.324h-4.831v3.324c0,0.93-0.756,1.687-1.686,1.691c-0.926-0.005-1.682-0.762-1.682-1.691
		v-3.324h-1.713h-0.693h-2.596c-1.014,0-1.833-0.823-1.836-1.836c0-0.994,0.795-1.801,1.786-1.83l0.941-0.023v-32.218l-0.941-0.024
		c-0.991-0.028-1.786-0.837-1.786-1.832c0.003-1.01,0.822-1.835,1.836-1.835h2.596h0.693h0.747h0.966v-3.183
		c0-0.93,0.756-1.682,1.682-1.686c0.93,0.004,1.686,0.756,1.686,1.686v3.183h4.831v-3.183c0.003-0.93,0.754-1.682,1.686-1.686
		c0.93,0.004,1.682,0.756,1.684,1.686v2.651h0.968v-0.97h-0.145h-8.723l8.511,1.905c1.885,0.437,3.416,1.207,4.493,2.483
		c1.074,1.285,1.768,3.155,1.771,5.979c0,2.228-0.441,4.042-1.188,5.419c-0.749,1.379-1.786,2.328-3.062,2.904l-2.136,0.936
		l2.175,0.844L155.401,145.237z M141.709,131.541v0.969h6.649c1.647,0,2.859,0.377,3.63,1.055c0.39,0.341,0.69,0.769,0.909,1.32
		c0.215,0.564,0.343,1.255,0.343,2.112c0,0.887-0.107,1.639-0.307,2.246c-0.301,0.909-0.767,1.516-1.458,1.952
		c-0.696,0.423-1.679,0.687-3.005,0.687h-5.794v-10.341H141.709v0.969V131.541h-0.966v12.271h7.728c1.047,0,1.995-0.132,2.839-0.42
		c1.269-0.424,2.294-1.247,2.938-2.363c0.644-1.108,0.926-2.469,0.926-4.032c0-1.05-0.153-1.986-0.475-2.815
		c-0.477-1.233-1.354-2.191-2.466-2.774c-1.11-0.579-2.428-0.832-3.875-0.832h-7.615v0.966H141.709z M155.229,155.343h-0.967
		c0,1.146-0.138,2.098-0.391,2.871c-0.377,1.157-0.963,1.905-1.773,2.419c-0.811,0.519-1.899,0.791-3.287,0.791h-6.135v-12.835
		h6.135c0.937,0,1.743,0.104,2.413,0.319c1.007,0.322,1.693,0.832,2.209,1.673c0.51,0.844,0.832,2.096,0.829,3.857v0.904H155.229
		h0.966v-0.904c0-1.325-0.155-2.479-0.481-3.475c-0.484-1.501-1.396-2.649-2.614-3.345c-1.219-0.7-2.671-0.962-4.288-0.964h-8.068
		v16.705h8.068c1.094,0,2.108-0.149,3.023-0.47c1.378-0.479,2.526-1.39,3.265-2.683c0.744-1.295,1.096-2.912,1.096-4.865H155.229z"
		/>
	<path fill="#1a095a" fill-rule="evenodd" clip-rule="evenodd" d="M57.351,74.689c3.753,0,7.061-0.783,9.924-2.346
		c2.862-1.562,5.039-3.791,6.531-6.676l-6.928-4.041c-1.108,1.779-2.489,3.115-4.15,4.004c-1.66,0.891-3.476,1.336-5.448,1.336
		c-3.418,0-6.22-1.094-8.408-3.283c-2.19-2.189-3.284-5.111-3.284-8.77c0-3.656,1.106-6.578,3.319-8.77
		c2.213-2.188,5.004-3.279,8.373-3.279c1.972,0,3.788,0.443,5.448,1.334c1.661,0.891,3.042,2.225,4.15,4.006l6.928-4.043
		c-1.444-2.889-3.598-5.102-6.459-6.639c-2.864-1.541-6.195-2.311-9.996-2.311c-4.041,0-7.638,0.844-10.788,2.525
		c-3.152,1.686-5.619,4.018-7.397,7c-1.78,2.984-2.669,6.375-2.669,10.176c0,3.803,0.89,7.207,2.669,10.213
		c1.779,3.006,4.257,5.352,7.433,7.035C49.774,73.848,53.357,74.689,57.351,74.689z"/>
	<path fill="#1a095a" fill-rule="evenodd" clip-rule="evenodd" d="M58.608,79.105v-9.871h3.6v9.871H58.608z M58.608,29.633h3.6v9.871h-3.6V29.633z
		 M51.977,69.234h3.6v9.871h-3.6V69.234z M51.977,29.633h3.6v9.871h-3.6V29.633z"/>
</g>
</svg>
