<svg xmlns="http://www.w3.org/2000/svg" xmlns:xlink="http://www.w3.org/1999/xlink" width="496.601" height="512" viewBox="0 0 496.601 512">
  <defs>
    <linearGradient id="linear-gradient" x1="0.5" x2="0.5" y2="1" gradientUnits="objectBoundingBox">
      <stop offset="0" stop-color="#1a095a"/>
      <stop offset="0" stop-color="#f9d33e"/>
      <stop offset="0.472" stop-color="#c39727"/>
      <stop offset="1" stop-color="#f9f5b5"/>
    </linearGradient>
  </defs>
  <g id="team-icon" transform="translate(-7.7)">
    <g id="Group_23" data-name="Group 23">
      <g id="Group_22" data-name="Group 22">
        <circle id="Ellipse_1" data-name="Ellipse 1" cx="10" cy="10" r="10" transform="translate(431.639 328.1)" fill="url(#linear-gradient)"/>
      </g>
    </g>
    <g id="Group_25" data-name="Group 25">
      <g id="Group_24" data-name="Group 24">
        <circle id="Ellipse_2" data-name="Ellipse 2" cx="10" cy="10" r="10" transform="translate(50.965 328.1)" fill="url(#linear-gradient)"/>
      </g>
    </g>
    <g id="Group_27" data-name="Group 27">
      <g id="Group_26" data-name="Group 26">
        <path id="Path_19" data-name="Path 19" d="M494.3,492H408.422L407.9,246.224a10,10,0,0,0-10-9.98h-.022a10,10,0,0,0-9.98,10.023L388.419,492H359.37l-.257-109.348a10,10,0,0,0-10-9.978h-.024A10,10,0,0,0,339.11,382.7l.257,109.3H315.082V359.636c28.31-2.5,50.569-25.767,50.569-54.016V208.7a108.563,108.563,0,0,0-9.525-44.471,82.793,82.793,0,0,1,52.28,23.013,77.524,77.524,0,0,1,24.071,55.971l.183,56.916a10,10,0,0,0,10,9.97h.033a10,10,0,0,0,9.97-10.034l-.183-56.9a97.365,97.365,0,0,0-30.18-70.307,102.226,102.226,0,0,0-38.6-23.439,52.882,52.882,0,0,0-36.446-91.234h-.114a53.09,53.09,0,0,0-24.4,6.01,10,10,0,0,0,9.277,17.723,32.544,32.544,0,0,1,15.168-3.73,32.917,32.917,0,1,1,.141,65.833,9.969,9.969,0,0,0-1.267.092c-.533.022-1.065.041-1.6.071a113.818,113.818,0,0,0-57.84-41.4,58.671,58.671,0,1,0-75.472,1.533,113.715,113.715,0,0,0-53.292,39.812c-1.584-.071-3.166-.113-4.74-.113-.748,0-1.494.012-2.239.028-.183-.01-.363-.028-.548-.028a32.916,32.916,0,1,1,15.693-61.859,10,10,0,0,0,9.555-17.575,52.9,52.9,0,0,0-60,86.382c-37.813,14.581-64.622,50.512-64.622,92.42v56.72a10,10,0,1,0,20,0v-56.72c0-41.48,33.116-75.606,75.144-79.055a108.564,108.564,0,0,0-9.484,44.378V305.62c0,28.808,23.147,52.433,52.255,54.141V491.995H161.634V382.668a10,10,0,1,0-20,0V492H117.044V246.346a10,10,0,1,0-20,0V492H17.7a10,10,0,1,0,0,20H494.3a10,10,0,1,0,0-20ZM209.307,58.675a38.671,38.671,0,1,1,38.671,38.671A38.715,38.715,0,0,1,209.307,58.675Zm95.772,143.391a10,10,0,0,0-10,10V492H259.455V352.849a10,10,0,1,0-20,0V492H208.886V212.068a10,10,0,0,0-20,0V339.709c-18.067-1.64-32.252-16.3-32.252-34.088V208.7a88.829,88.829,0,0,1,14.558-48.724c17.452-26.689,47.34-42.623,79.95-42.623,32.664,0,62.579,15.975,80.021,42.734A88.837,88.837,0,0,1,345.646,208.7v96.924c0,17.232-13.31,31.525-30.565,33.895V212.068A10,10,0,0,0,305.079,202.066Z" fill="url(#linear-gradient)"/>
      </g>
    </g>
  </g>
</svg>
