<svg xmlns="http://www.w3.org/2000/svg" xmlns:xlink="http://www.w3.org/1999/xlink" width="512" height="512.002" viewBox="0 0 512 512.002">
  <defs>
    <linearGradient id="linear-gradient" x1="0.5" x2="0.5" y2="1" gradientUnits="objectBoundingBox">
      <stop offset="0" stop-color="#f9d33e"/>
      <stop offset="0.482" stop-color="#c09222"/>
      <stop offset="1" stop-color="#faf6b7"/>
    </linearGradient>
  </defs>
  <g id="Group_21" data-name="Group 21" transform="translate(-9147 4204)">
    <g id="earth-globe" transform="translate(9146.999 -4204)">
      <g id="Group_2" data-name="Group 2">
        <g id="Group_1" data-name="Group 1">
          <path id="Path_10" data-name="Path 10" d="M20.429,184.236a10,10,0,0,0-12.2,7.15q-.192.735-.378,1.474a10,10,0,1,0,19.386,4.918l.344-1.341A10,10,0,0,0,20.429,184.236Z" fill="url(#linear-gradient)"/>
        </g>
      </g>
      <g id="Group_4" data-name="Group 4">
        <g id="Group_3" data-name="Group 3">
          <path id="Path_11" data-name="Path 11" d="M338.385,13.549A256.162,256.162,0,0,0,24.319,146.962a10,10,0,1,0,18.091,8.529,235.966,235.966,0,0,1,79.849-93.722,10,10,0,0,0,1.025.462l61.1,23.245a3.571,3.571,0,0,1,2.3,3.467,10.029,10.029,0,0,0,.548,3.643A34.676,34.676,0,0,0,235.8,112.061l.111-.058,13.276-7.014a44.173,44.173,0,0,1,64.508,44.17l-.123,1.053a14.84,14.84,0,0,1-11.31,12.966c-6.612,1.562-14.143,3.356-20.6,4.9a34.765,34.765,0,0,0-25.909,26.843l-8.582,42.489a34.676,34.676,0,0,0,32.742,41.517l11.013.4a14.6,14.6,0,0,1,5.463,1.27,10,10,0,1,0,8.164-18.258,34.52,34.52,0,0,0-12.907-3l-11.013-.4a14.675,14.675,0,0,1-13.857-17.571l8.582-42.489a14.7,14.7,0,0,1,10.956-11.351c6.436-1.539,13.946-3.328,20.54-4.886a35.087,35.087,0,0,0,26.581-30.119l.123-1.053a64.173,64.173,0,0,0-93.718-64.165l-13.214,6.981a14.682,14.682,0,0,1-19.988-6.976A23.564,23.564,0,0,0,191.5,66.784L143.733,48.612A235.629,235.629,0,0,1,331.951,32.487a10,10,0,0,0,6.434-18.938Z" fill="url(#linear-gradient)"/>
        </g>
      </g>
      <g id="Group_6" data-name="Group 6">
        <g id="Group_5" data-name="Group 5">
          <path id="Path_12" data-name="Path 12" d="M502.059,185.122a10,10,0,1,0-19.22,5.527,237.536,237.536,0,0,1-1.671,136.258,10,10,0,1,0,19.078,6,257.543,257.543,0,0,0,1.813-147.787Z" fill="url(#linear-gradient)"/>
        </g>
      </g>
      <g id="Group_8" data-name="Group 8">
        <g id="Group_7" data-name="Group 7">
          <path id="Path_13" data-name="Path 13" d="M474.108,370.539a10.033,10.033,0,0,0-13.819,3.708l-.057.1a10.006,10.006,0,1,0,13.876-3.8Z" fill="url(#linear-gradient)"/>
        </g>
      </g>
      <g id="Group_10" data-name="Group 10">
        <g id="Group_9" data-name="Group 9">
          <path id="Path_14" data-name="Path 14" d="M446.029,412.553a10,10,0,0,0-14.121.782,235.9,235.9,0,0,1-45.948,39.612c-11.532-5.207-23.613-17.552-22.43-36.9l6.31-74.748a10,10,0,1,0-19.929-1.682l-6.319,74.857c-.006.069-.011.139-.016.208a57.593,57.593,0,0,0,22.852,49.829,235.57,235.57,0,0,1-142.871,25.245l9.327-16.936h8.159A38.468,38.468,0,0,0,279.468,434.4v-13.8a18.3,18.3,0,0,1,3.549-10.871,10,10,0,1,0-16.147-11.8,38.18,38.18,0,0,0-7.4,22.672v13.8a18.446,18.446,0,0,1-18.425,18.425H226.976A10,10,0,0,0,218.217,458l-15.39,27.945a234.755,234.755,0,0,1-61.776-23.777,10,10,0,0,0-9.757,17.459,256.133,256.133,0,0,0,315.517-52.95A10,10,0,0,0,446.029,412.553Z" fill="url(#linear-gradient)"/>
        </g>
      </g>
      <g id="Group_12" data-name="Group 12">
        <g id="Group_11" data-name="Group 11">
          <path id="Path_15" data-name="Path 15" d="M428.168,42.884A42.128,42.128,0,1,0,470.3,85.011,42.175,42.175,0,0,0,428.168,42.884Zm0,64.255A22.127,22.127,0,1,1,450.3,85.011,22.153,22.153,0,0,1,428.168,107.139Z" fill="url(#linear-gradient)"/>
        </g>
      </g>
      <g id="Group_19" data-name="Group 19">
        <g id="Group_14" data-name="Group 14">
          <g id="Group_13" data-name="Group 13">
            <path id="Path_16" data-name="Path 16" d="M244.205,339.941l-43.781-63.1a9.978,9.978,0,0,0-1.554-1.745,101,101,0,1,0-176.4,88.5l.071.093,70.578,90.463a10,10,0,0,0,15.766,0l70.241-89.989c.141-.18.273-.362.4-.548A101.158,101.158,0,0,0,201.169,313l26.6,38.342a10,10,0,0,0,16.432-11.4Zm-80.725,11.7a9.717,9.717,0,0,0-.7.956L101,431.746l-62.5-80.105c-.1-.143-.212-.282-.324-.42a81,81,0,1,1,125.3.422Z" fill="url(#linear-gradient)"/>
          </g>
        </g>
        <g id="Group_16" data-name="Group 16">
          <g id="Group_15" data-name="Group 15">
            <path id="Path_17" data-name="Path 17" d="M101,243.542a58,58,0,1,0,58,58A58.066,58.066,0,0,0,101,243.542Zm0,96a38,38,0,1,1,38-38A38.043,38.043,0,0,1,101,339.542Z" fill="url(#linear-gradient)"/>
          </g>
        </g>
      </g>
      <g id="Group_18" data-name="Group 18">
        <g id="Group_17" data-name="Group 17">
          <path id="Path_18" data-name="Path 18" d="M428.168,0a83.831,83.831,0,0,0-65.206,136.52l.058.075,57.264,73.4a10,10,0,0,0,7.883,3.849h0a10,10,0,0,0,7.883-3.847l56.991-73.013c.123-.157.24-.316.352-.479A83.836,83.836,0,0,0,428.168,0Zm49.238,124.459a9.833,9.833,0,0,0-.651.883L428.17,187.586l-49.2-63.061c-.1-.135-.2-.269-.31-.4a63.831,63.831,0,1,1,98.745.333Z" fill="url(#linear-gradient)"/>
        </g>
      </g>
      <g id="Group_20" data-name="Group 20" transform="translate(365.932 59.477)">
        <g id="Group_14-2" data-name="Group 14" transform="translate(0.001 199.09)">
          <g id="Group_13-2" data-name="Group 13">
            <path id="Path_16-2" data-name="Path 16" d="M123.568,270.36l-22.153-31.926a5.049,5.049,0,0,0-.786-.883A51.108,51.108,0,1,0,11.369,282.33l.036.047,35.712,45.774a5.059,5.059,0,0,0,7.978,0l35.542-45.534c.071-.091.138-.183.2-.277a51.186,51.186,0,0,0,10.953-25.612l13.462,19.4a5.06,5.06,0,1,0,8.315-5.769Zm-40.847,5.921a4.919,4.919,0,0,0-.353.484l-31.26,40.048L19.484,276.281c-.053-.072-.107-.143-.164-.213a40.984,40.984,0,1,1,63.4.214Z" transform="translate(-0.001 -199.09)" fill="url(#linear-gradient)"/>
          </g>
        </g>
        <g id="Group_16-2" data-name="Group 16" transform="translate(21.759 221.583)">
          <g id="Group_15-2" data-name="Group 15" transform="translate(0 0)">
            <path id="Path_17-2" data-name="Path 17" d="M72.349,243.542A29.348,29.348,0,1,0,101.7,272.89,29.381,29.381,0,0,0,72.349,243.542Zm0,48.576A19.228,19.228,0,1,1,91.577,272.89,19.25,19.25,0,0,1,72.349,292.118Z" transform="translate(-43.001 -243.542)" fill="url(#linear-gradient)"/>
          </g>
        </g>
      </g>
    </g>
  </g>
</svg>
